<svg width="99" height="102" viewBox="0 0 99 102" fill="none" xmlns="http://www.w3.org/2000/svg">
<g clip-path="url(#clip0)">
<path d="M33.0504 79.1694C33.0504 79.5679 32.5922 79.8866 32.0144 79.8866C31.357 79.9464 30.8988 79.6276 30.8988 79.1694C30.8988 78.771 31.357 78.4523 31.9347 78.4523C32.5324 78.3925 33.0504 78.7112 33.0504 79.1694ZM26.8547 78.273C26.7152 78.6714 27.1136 79.1296 27.7113 79.2491C28.2293 79.4483 28.8269 79.2491 28.9465 78.8507C29.066 78.4523 28.6875 77.9941 28.0898 77.8148C27.5718 77.6753 26.9941 77.8745 26.8547 78.273ZM35.6601 77.9343C35.0824 78.0737 34.6839 78.4523 34.7437 78.9105C34.8035 79.3089 35.3214 79.5679 35.9191 79.4284C36.4968 79.289 36.8953 78.9105 36.8355 78.512C36.7757 78.1335 36.2378 77.8745 35.6601 77.9343ZM48.7687 1.59375C21.1371 1.59375 0 22.5715 0 50.2031C0 72.2964 13.9055 91.2022 33.7675 97.8561C36.3175 98.3143 37.214 96.7405 37.214 95.4456C37.214 94.2104 37.1543 87.3972 37.1543 83.2136C37.1543 83.2136 23.209 86.2019 20.2804 77.2769C20.2804 77.2769 18.0094 71.4796 14.7422 69.9855C14.7422 69.9855 10.1801 66.8577 15.0609 66.9175C15.0609 66.9175 20.0215 67.3159 22.7508 72.0573C27.1136 79.7472 34.425 77.5359 37.2738 76.221C37.732 73.0335 39.0269 70.8222 40.4613 69.5073C29.325 68.2722 18.089 66.6585 18.089 47.4937C18.089 42.0152 19.6031 39.266 22.7906 35.7597C22.2726 34.4648 20.5793 29.1257 23.3086 22.2328C27.4722 20.9379 37.0546 27.6117 37.0546 27.6117C41.039 26.4961 45.3222 25.9183 49.5656 25.9183C53.8089 25.9183 58.0921 26.4961 62.0765 27.6117C62.0765 27.6117 71.6589 20.9179 75.8226 22.2328C78.5519 29.1457 76.8585 34.4648 76.3405 35.7597C79.528 39.2859 81.4804 42.0351 81.4804 47.4937C81.4804 66.7183 69.7464 68.2523 58.6101 69.5073C60.4429 71.0812 61.9968 74.0694 61.9968 78.7511C61.9968 85.4647 61.937 93.7722 61.937 95.4058C61.937 96.7007 62.8534 98.2745 65.3835 97.8163C85.3054 91.2022 98.8124 72.2964 98.8124 50.2031C98.8124 22.5715 76.4003 1.59375 48.7687 1.59375ZM19.364 70.3042C19.1051 70.5034 19.1648 70.9616 19.5035 71.3402C19.8222 71.6589 20.2804 71.7984 20.5394 71.5394C20.7984 71.3402 20.7386 70.882 20.4 70.5034C20.0812 70.1847 19.623 70.0452 19.364 70.3042ZM17.2125 68.6905C17.073 68.9495 17.2722 69.2683 17.6707 69.4675C17.9894 69.6667 18.3879 69.607 18.5273 69.328C18.6668 69.0691 18.4676 68.7503 18.0691 68.5511C17.6707 68.4316 17.3519 68.4913 17.2125 68.6905ZM23.6672 75.7827C23.3484 76.0417 23.4679 76.6394 23.9261 77.0179C24.3843 77.4761 24.9621 77.5359 25.2211 77.2171C25.48 76.9581 25.3605 76.3605 24.9621 75.9819C24.5238 75.5237 23.9261 75.464 23.6672 75.7827ZM21.3961 72.8542C21.0773 73.0534 21.0773 73.5714 21.3961 74.0296C21.7148 74.4878 22.2527 74.687 22.5117 74.4878C22.8304 74.2288 22.8304 73.7109 22.5117 73.2527C22.2328 72.7945 21.7148 72.5952 21.3961 72.8542Z" fill="black"/>
</g>
<defs>
<clipPath id="clip0">
<rect width="98.8124" height="102" fill="white"/>
</clipPath>
</defs>
</svg>
