<svg width="100" height="102" viewBox="0 0 100 102" fill="none" xmlns="http://www.w3.org/2000/svg">
<path d="M88.4866 6.21924H11.9668C8.46052 6.21924 5.61169 9.10791 5.61169 12.654V89.0344C5.61169 92.5805 8.46052 95.4691 11.9668 95.4691H88.4866C91.9928 95.4691 94.8616 92.5805 94.8616 89.0344V12.654C94.8616 9.10791 91.9928 6.21924 88.4866 6.21924ZM32.5859 82.7192H19.3578V40.1262H32.6058V82.7192H32.5859ZM25.9718 34.3091C21.7285 34.3091 18.3019 30.8626 18.3019 26.6391C18.3019 22.4157 21.7285 18.9692 25.9718 18.9692C30.1953 18.9692 33.6417 22.4157 33.6417 26.6391C33.6417 30.8825 30.2152 34.3091 25.9718 34.3091V34.3091ZM82.1714 82.7192H68.9433V62.0004C68.9433 57.0598 68.8436 50.7047 62.0702 50.7047C55.1773 50.7047 54.1214 56.0836 54.1214 61.6418V82.7192H40.8933V40.1262H53.5835V45.9434H53.7628C55.5359 42.5965 59.8589 39.0704 66.2937 39.0704C79.6811 39.0704 82.1714 47.8958 82.1714 59.3707V82.7192V82.7192Z" fill="black"/>
</svg>
