<svg width="100" height="102" viewBox="0 0 100 102" fill="none" xmlns="http://www.w3.org/2000/svg">
<g clip-path="url(#clip0)">
<path d="M91.7872 30.2249C91.852 31.131 91.852 32.0372 91.852 32.9433C91.852 60.5789 70.8179 92.4216 32.3737 92.4216C20.5298 92.4216 9.52731 88.9912 0.272217 83.0372C1.95502 83.2312 3.57287 83.2959 5.32042 83.2959C15.0931 83.2959 24.0894 79.9953 31.2734 74.3646C22.0831 74.1703 14.3813 68.1514 11.7277 59.867C13.0222 60.0611 14.3165 60.1906 15.6758 60.1906C17.5526 60.1906 19.4297 59.9316 21.177 59.4788C11.5984 57.537 4.41417 49.1234 4.41417 38.9622V38.7035C7.19705 40.2568 10.4334 41.2276 13.8633 41.3569C8.23259 37.603 4.54366 31.1957 4.54366 23.9469C4.54366 20.0638 5.579 16.5041 7.39129 13.3975C17.6819 26.0828 33.1503 34.3669 50.4952 35.2731C50.1717 33.7198 49.9774 32.102 49.9774 30.4839C49.9774 18.9635 59.2973 9.5791 70.8822 9.5791C76.9012 9.5791 82.3377 12.1032 86.1563 16.1806C90.8808 15.2746 95.4112 13.527 99.4241 11.1324C97.8706 15.9866 94.5699 20.064 90.2337 22.6526C94.4406 22.1998 98.518 21.0346 102.272 19.4167C99.4245 23.5587 95.8647 27.2476 91.7872 30.2249V30.2249Z" fill="black"/>
</g>
<defs>
<clipPath id="clip0">
<rect width="98.8124" height="102" fill="white" transform="translate(0.272217)"/>
</clipPath>
</defs>
</svg>
